<?xml version="1.0" encoding="iso-8859-1"?>
<!-- Generator: Adobe Illustrator 19.0.0, SVG Export Plug-In . SVG Version: 6.00 Build 0)  -->
<svg version="1.1" id="Layer_1" xmlns="http://www.w3.org/2000/svg" xmlns:xlink="http://www.w3.org/1999/xlink" x="0px" y="0px"
	 viewBox="0 0 503.641 503.641" style="enable-background:new 0 0 503.641 503.641;" xml:space="preserve">
<g transform="translate(1 1)">
	<g>
		<g>
			<path d="M460.494,106.408c-0.426-2.505-1.788-4.448-3.809-5.571L358.836,2.988c-1.124-2.021-3.067-3.383-5.571-3.809
				c-0.714-0.16-1.45-0.211-2.199-0.146H116.508c-14.269,0-25.18,10.911-25.18,25.18v25.18h-25.18
				c-14.269,0-25.18,10.911-25.18,25.18V477.46c0,14.269,10.911,25.18,25.18,25.18h318.951c14.269,0,25.18-10.911,25.18-25.18
				v-25.18h25.18c14.269,0,25.18-10.911,25.18-25.18V108.608C460.705,107.858,460.654,107.122,460.494,106.408z M432.102,99.755
				h-63.79c-5.036,0-8.393-3.357-8.393-8.393v-63.79L432.102,99.755z M393.492,477.46c0,5.036-3.357,8.393-8.393,8.393H66.147
				c-5.036,0-8.393-3.357-8.393-8.393V74.575c0-4.197,3.357-8.393,8.393-8.393h24.341h0.839V427.1
				c0,14.269,10.911,25.18,25.18,25.18h276.984V477.46z M443.852,427.1c0,5.036-3.357,8.393-8.393,8.393h-34.413H116.508
				c-5.036,0-8.393-3.357-8.393-8.393V59.467V24.214c0-4.197,3.357-8.393,8.393-8.393h226.623v75.541
				c0,14.269,10.911,25.18,25.18,25.18h75.541V427.1z"/>
			<path d="M158.475,116.542h151.082c5.036,0,8.393-3.357,8.393-8.393s-3.357-8.393-8.393-8.393H158.475
				c-5.036,0-8.393,3.357-8.393,8.393S153.439,116.542,158.475,116.542z"/>
			<path d="M150.082,158.509c0,5.036,3.357,8.393,8.393,8.393h251.803c5.036,0,8.393-3.357,8.393-8.393s-3.357-8.393-8.393-8.393
				H158.475C153.439,150.116,150.082,153.473,150.082,158.509z"/>
			<path d="M410.279,200.477H158.475c-5.036,0-8.393,3.357-8.393,8.393s3.357,8.393,8.393,8.393h251.803
				c5.036,0,8.393-3.357,8.393-8.393S415.315,200.477,410.279,200.477z"/>
			<path d="M410.279,250.837H158.475c-5.036,0-8.393,3.357-8.393,8.393s3.357,8.393,8.393,8.393h251.803
				c5.036,0,8.393-3.357,8.393-8.393S415.315,250.837,410.279,250.837z"/>
			<path d="M410.279,301.198H158.475c-5.036,0-8.393,3.357-8.393,8.393s3.357,8.393,8.393,8.393h251.803
				c5.036,0,8.393-3.357,8.393-8.393S415.315,301.198,410.279,301.198z"/>
			<path d="M410.279,351.559H158.475c-5.036,0-8.393,3.357-8.393,8.393s3.357,8.393,8.393,8.393h251.803
				c5.036,0,8.393-3.357,8.393-8.393S415.315,351.559,410.279,351.559z"/>
		</g>
	</g>
</g>
<g>
</g>
<g>
</g>
<g>
</g>
<g>
</g>
<g>
</g>
<g>
</g>
<g>
</g>
<g>
</g>
<g>
</g>
<g>
</g>
<g>
</g>
<g>
</g>
<g>
</g>
<g>
</g>
<g>
</g>
</svg>
