<svg xmlns="http://www.w3.org/2000/svg" viewBox="0 0 512 512"><path d="M256,-0 C114.997,-0 0,114.997 0,256 C0,397.003 114.997,512 256,512 C397.003,512 512,397.003 512,256 C512,114.997 397.003,-0 256,-0 z M390.095,253.156 C390.095,323.454 332.8,386.438 262.502,390.095 C183.67,393.752 118.654,328.737 121.905,249.905 C124.749,183.263 177.575,128.406 243.81,122.311 C283.225,119.06 320.61,132.47 348.648,159.289 C353.117,163.352 354.337,170.26 350.679,175.137 C346.21,181.638 337.27,182.451 331.987,177.168 C309.232,155.225 278.756,144.254 247.06,146.286 C192.61,150.349 148.724,195.048 145.879,249.905 C143.035,313.295 193.422,365.714 256,365.714 C312.483,365.714 358.806,323.048 364.902,268.19 L256.406,268.19 C250.311,268.19 245.029,264.127 243.81,258.438 C242.59,250.717 248.279,243.81 256,243.81 L380.749,243.81 C386.032,243.81 390.095,247.873 390.095,253.156 z"/></svg>