<svg id="Layer_1" enable-background="new 0 0 128 128" height="512" viewBox="0 0 128 128" width="512" xmlns="http://www.w3.org/2000/svg"><path d="m64 1c-34.7 0-63 28.3-63 63s28.3 63 63 63 63-28.3 63-63-28.3-63-63-63zm33 62.3c0 17.3-14.1 32.8-31.4 33.7-19.4.9-35.4-15.1-34.6-34.5.7-16.4 13.7-29.9 30-31.4 9.7-.8 18.9 2.5 25.8 9.1 1.1 1 1.4 2.7.5 3.9-1.1 1.6-3.3 1.8-4.6.5-5.6-5.4-13.1-8.1-20.9-7.6-13.4 1-24.2 12-24.9 25.5-.7 15.6 11.7 28.5 27.1 28.5 13.9 0 25.3-10.5 26.8-24h-26.7c-1.5 0-2.8-1-3.1-2.4-.3-1.9 1.1-3.6 3-3.6h30.7c1.3 0 2.3 1 2.3 2.3z"/></svg>