<svg xmlns="http://www.w3.org/2000/svg" viewBox="0 0 256 256"><path d="M 256 128 L 256 128 C 256 57.3 198.7 0 128 0 C 57.3 0 0 57.3 0 128 C 0 198.7 57.3 256 128 256 C 198.7 256 256 198.7 256 128 Z M 86.3 186.2 L 70.9 186.2 L 70.9 79.1 L 86.3 79.1 L 86.3 127.5 Z M 108.9 79.1 L 108.9 79.1 L 150.5 79.1 C 190.1 79.1 207.5 107.4 207.5 132.7 C 207.5 160.2 186 186.3 150.7 186.3 L 108.9 186.3 L 108.9 79.1 Z M 124.3 172.4 L 148.8 172.4 C 183.7 172.4 191.7 145.9 191.7 132.7 C 191.7 111.2 178 93 148 93 L 124.3 93 Z M 88.7 56.8 L 88.7 56.8 C 88.7 62.3 84.2 66.9 78.6 66.9 C 73 66.9 68.5 62.3 68.5 56.8 C 68.5 51.2 73 46.7 78.6 46.7 C 84.2 46.7 88.7 51.3 88.7 56.8 Z"/></svg>